<svg id="Calque_8" data-name="Calque 8" xmlns="http://www.w3.org/2000/svg" viewBox="0 0 841.89 595.28"><defs><style>.cls-1{fill:#8cced6;}.cls-2,.cls-3,.cls-5,.cls-6,.cls-7{fill:none;stroke-miterlimit:10;}.cls-2{stroke:#fff;}.cls-2,.cls-5,.cls-7{stroke-width:2px;}.cls-3,.cls-5{stroke:#000;}.cls-3,.cls-6{stroke-width:3px;}.cls-4{fill:#fff;}.cls-6,.cls-7{stroke:#1d1d1b;}</style></defs><title>Mazur-Agathe-PGRA-vecto-page1</title><g id="Calque_3" data-name="Calque 3"><path class="cls-1" d="M254.33,113.14c-20.57,44.3-27.25,91-23.52,139.69l59.93-31.58,41.55-14.76c-18.87-34.62-37.92-69.52-63.44-99.58a7,7,0,0,0-3.49-2.16,6.68,6.68,0,0,0-7.22,2.58Z"/><path class="cls-1" d="M544.88,228.34c3.61-41.28,7.66-84.45-3.43-124.37-2-7.25-6.54-15.82-14-15.27-3,.22-5.66,2-8.07,3.78-18.22,13.7-30.9,33.55-40.66,54.16-4.63,9.81-9.54,19.57-12.72,29.93-2.33,7.61-6.92,22-8.44,29.93"/><path class="cls-1" d="M441,205.72c-18.23-10.19-33.86-28.71-53.17-36.67,16,7.46,46.89,18.56,56.26,33.91-9.54-9.38-37.12-17-50.07-20.33a299.6,299.6,0,0,0-35-6.75c2.48,4.92,7.86,7.57,12.95,9.69,11.63,4.83,23.66,8.64,35.66,12.45q-27.33-3.3-54.53-7.65L391.78,203Z"/><path class="cls-1" d="M492.17,228.9c-47.08-8.39-91.66-19.36-138.37-9.09C337,223.5,293.14,235.18,277.38,242c-34.32,14.9-68.26,35-88.19,66.63-8.37,13.31-14.05,28.71-13.85,44.44.24,18.91,9.09,37.13,22.17,50.79s30.15,23.05,48,29.24a409.35,409.35,0,0,0,91.2,20.13c44.61,4.56,123.17-3.11,165.45-14.94,38.53-10.77,74.73-23.81,101.81-56.86,9.6-11.71,23.2-27.28,25.36-42.26,1.71-11.92-2.49-24-8.56-34.38-19.14-32.76-55.31-51.53-91-64.28a479.41,479.41,0,0,0-129.16-26.78c-68-4.5-140.57,7.34-192.77,51.14-28.4,23.83-50.23,60.22-43.72,96.71,4.11,23,19.12,43.11,37.88,57.07s41.09,22.35,63.65,28.51c52.74,14.42,108.26,17.47,162.66,12,45.42-4.55,90.64-15.1,131.5-35.45,17.7-8.81,34.75-19.63,47.84-34.44s22-34,21.48-53.81c-.89-34.91-20.86-53-50.15-72"/><path class="cls-1" d="M674,309.72A324.78,324.78,0,0,0,723,298.66c6.64-2,13.59-4.5,18-9.88-8.76-1.89-17.83.32-26.48,2.66-22,5.93-45.56,12.65-67.89,19.55a6.13,6.13,0,0,1,.14.84,11.15,11.15,0,0,1,1.57,2.55C685.83,313,719,312,758.05,310.44A441.57,441.57,0,0,0,674,309.72Z"/><g id="Calque_4" data-name="Calque 4"><path class="cls-2" d="M307.59,161.56c7.94,12.61,11,26.64,18.94,39.25a105.78,105.78,0,0,0-35.13-1.58,50.6,50.6,0,0,1,22.49,2.7q-21.28,5.28-43,8.77c11.14,2.6,22.75,4.1,34.06,2.35"/></g><path class="cls-1" d="M717.81,316.44c-25.36-.21-45.71-.89-69.16-1.24a23.33,23.33,0,0,1,1.24,5.79c36.38,1.35,70.72,1.42,107.85.6C745.14,316.75,731.31,316.56,717.81,316.44Z"/><path class="cls-3" d="M512.12,218.9c-47.08-8.39-91.66-19.36-138.37-9.09C357,213.5,313.09,225.18,297.33,232c-34.32,14.9-68.26,35-88.19,66.63-8.37,13.31-14,28.71-13.85,44.44.24,18.91,9.09,37.13,22.17,50.79s30.15,23.05,48,29.24a409.35,409.35,0,0,0,91.2,20.13c44.61,4.56,123.17-3.11,165.45-14.94,38.53-10.77,74.73-23.81,101.81-56.86,9.6-11.71,23.2-27.28,25.35-42.26,1.72-11.92-2.48-24-8.55-34.38-19.14-32.76-55.31-51.53-91-64.28a479.49,479.49,0,0,0-129.16-26.78c-68-4.5-140.57,7.34-192.77,51.14-28.4,23.83-50.23,60.22-43.72,96.71,4.11,23,19.12,43.11,37.88,57.07S263,431,285.58,437.19c52.74,14.42,108.26,17.47,162.66,12,45.42-4.55,90.64-15.1,131.5-35.45,17.7-8.81,34.74-19.63,47.84-34.44s22-34,21.48-53.81c-.89-34.91-20.86-53-50.15-72"/><path class="cls-3" d="M347.82,205.87c-21.5-33.05-43.21-66.36-71-94.34-1.69-1.7-3.68-3.5-6.07-3.46-4.29.08-7.66,5.07-8.19,9.32-5.54,44.43-6.66,90.53-5.74,135.29-4.21-43.93,10.23-89.08,5.15-132.92-17.06,45.76-22.51,91.54-15,139.8"/><path class="cls-4" d="M422,341.8c10.28,2.26,15.86,9.05,25.69,12.84-9.15,4.7-17.35,3.58-26.25-.79-3.23-1.59-4.2-4.14-4.33-8.07,0-1.35,3.88-3.14,4.89-4,2.23-1.84-.71.65,1.06,2.85l7.12,8.88c1.83,2.28,3.52,6.33,6.3,5.82,5.7-1,6.31-.43,11.6-3.16,4.05-2.1,3.26-9.13,1-12.95-2.51-4.29-7.58-5.9-12.33-6a26,26,0,0,0-18.21,6.61c-1.8,1.65-3.5,4.2-2.7,6.51.46,1.34,4,5.22,5.22,5.84,3.13,1.67,9.29,2.33,12.84,2.14"/><path class="cls-5" d="M416,341.8c10.28,2.26,15.86,9.05,25.69,12.84-9.15,4.7-17.35,3.58-26.25-.79-3.23-1.59-4.2-4.14-4.33-8.07,0-1.35,3.88-3.14,4.89-4,2.23-1.84-.71.65,1.06,2.85l7.12,8.88c1.83,2.28,3.52,6.33,6.3,5.82,5.7-1,6.31-.43,11.6-3.16,4.05-2.1,3.26-9.13,1-12.95-2.51-4.29-7.58-5.9-12.33-6a26,26,0,0,0-18.21,6.61c-1.8,1.65-3.5,4.2-2.7,6.51.46,1.34,4,5.22,5.22,5.84,3.13,1.67,9.29,2.33,12.84,2.14"/><path class="cls-4" d="M573.74,303.5c-4,2.05-7.9,3.73-12.47,3.81h0c-8.13,2.84-16.21,6-24.63,7.87-8.59,1.9-17.4,2.48-25.67,5.71a4.33,4.33,0,0,1-3,.17,4.14,4.14,0,0,1-.65.14c-14.95,2.16-29.75,4.88-44.76,6.71-12.46,1.52-25.39,5.83-37.89,3.45-11.69,1.66-23.46.29-35.27.85-15.84.74-31.74,1.14-47.39-1.84l-.29-.07-3.54,0c-12-.11-24-.6-35.93-1.7q-13-1.2-25.91-2.78a4,4,0,0,1-.78.37"/><path class="cls-4" d="M227.25,319.33c-1.21,0-20.17-4.05-24.91-5-.38-.08,1.46-.21,1.69.1l8.56,2.14s277.91,61.45,415.63-32l-9.63-4.22"/><path d="M596.6,275.84c-4.82-3.75-20.35-14.53-26.37-17.83-.54-.3-2.21-1.4-2.81-1.72l-7.54-3.72c-1.09-.66-5-2.77-6.42-3.35-4.84-1.93-4.85.28-6.79.94-50.93,17.4-91.6,23.58-146.06,24.76-74.63,1.63-142.34-7.07-158.36-9.31a7.46,7.46,0,0,0-6.2,2L225.27,277.9A102.23,102.23,0,0,0,211.2,295l-5.88,10.28c-6.65,8.52,0,10.11,5.08,11.09,49.8,9.61,259.75,50.71,385-25,4.1-2.47,16.14-3.87,10.47-8"/><path class="cls-4" d="M429.2,366.18v-1.83c0-.07,0-.12,0-.19a17.73,17.73,0,0,1-.76-1.84,5.3,5.3,0,0,1-.29-1.68l-1,.42c1,1.38.34,3-.91,4.9-2.75,4.18-5.51,10.39-10.43,11-1.44.17-2.58,1-3.85,1.22.92.32,1.86.61,2.82.86a12.42,12.42,0,0,0,14.37-6.48c.47-1,.92-2,1.36-2.94A5.17,5.17,0,0,1,429.2,366.18Z"/><path class="cls-4" d="M468.63,355.41c.14,1.67-3,5.43-4.81,6.61l-.82.52a5.18,5.18,0,0,1-.45,1c-1.8,3.27-4.55,5-7.37,6.34-1,2.85-3.45,4.09-6.32,5.13-.76.27-1.21,1.3-1.94,1.14-.33.16-.85-.12-1.22,0a6.63,6.63,0,0,1-2.6.46c2,1.53,4.17,1.7,6.67,1.61,3.15-.12,6-1.83,8.58-3.65a67.5,67.5,0,0,0,16.85-17.07Z"/><path class="cls-5" d="M380.36,363.46c9.67,4.72,18,11.83,28.57,14.63a12.42,12.42,0,0,0,14.38-6.49,90.16,90.16,0,0,0,4.82-12c1,4,2.07,8.13,4.37,11.59s6.12,6.18,10.27,6c3.15-.12,6-1.84,8.58-3.65a77.52,77.52,0,0,0,18.24-18.13"/><path class="cls-6" d="M482.66,183.49a302.55,302.55,0,0,1,12.72-29.93C505.13,133,517.81,113.1,536,99.4c2.41-1.81,5.06-3.57,8.06-3.79,7.5-.55,12,8,14,15.27,11.09,39.93,7.05,83.1,3.43,124.37-3-40.76-6.65-82.27-12-122.78-.53-4-1.73-8.77-5.59-9.88-2.58-.75-5.28.56-7.53,2-7.21,4.69-13,11.25-18.3,18,0,0-9.12,13.92-18.22,31.24-12.69,24.16-26.6,54.22-26.6,56C473.29,212.78,476.66,200.74,482.66,183.49Z"/><path class="cls-3" d="M482.66,183.49a302.55,302.55,0,0,1,12.72-29.93C505.13,133,517.81,113.1,536,99.4c2.41-1.81,5.06-3.57,8.06-3.79,7.5-.55,12,8,14,15.27,11.09,39.93,7.05,83.1,3.43,124.37-3-40.76-6.65-82.27-12-122.78-.53-4-1.73-8.77-5.59-9.88-2.58-.75-5.28.56-7.53,2-7.21,4.69-13,11.25-18.3,18,0,0-9.12,13.92-18.22,31.24-12.69,24.16-26.6,54.22-26.6,56C473.29,212.78,476.66,200.74,482.66,183.49Z"/><path class="cls-4" d="M536.44,274.32c-1,8.25-6.48,15.52-13.41,20.12s-15.38,5.82-23.46,7.79c-16.22,4-68.52.86-20-10.69C498.42,287.05,517.71,280.52,536.44,274.32Z"/><path class="cls-4" d="M305.48,290.05c2.48,7.94,9.14,14.12,16.78,17.41s16.17,3,24.47,3.48c16.67,1,67.58-11.36,17.79-14.08C345.16,295.8,325,292.82,305.48,290.05Z"/><path class="cls-2" d="M515.41,154.83q-5.64,26.35-9.41,53.06a47.45,47.45,0,0,1,21.74-26.35,323.73,323.73,0,0,1-23,32.43c12.14-4.33,21.68-14.34,34-18.24A131.83,131.83,0,0,1,522,211.84l2.34-1.64"/><path class="cls-7" d="M512.41,154.83q-5.64,26.35-9.41,53.06a47.45,47.45,0,0,1,21.74-26.35,323.73,323.73,0,0,1-23,32.43c12.14-4.33,21.68-14.34,34-18.24A131.83,131.83,0,0,1,519,211.84l2.34-1.64"/><path class="cls-5" d="M306.59,163.56c7.94,12.61,11,26.64,18.94,39.25a105.78,105.78,0,0,0-35.13-1.58,50.6,50.6,0,0,1,22.49,2.7q-21.28,5.28-43,8.77c11.14,2.6,22.75,4.1,34.06,2.35"/><path class="cls-5" d="M450.7,206.06c-17.94-10.68-33.07-29.63-52.15-38.1,15.76,7.88,46.37,19.83,55.31,35.42-9.27-9.63-36.64-18-49.49-21.68a302.23,302.23,0,0,0-34.8-7.71c2.34,5,7.65,7.79,12.69,10,11.49,5.15,23.41,9.29,35.3,13.42q-27.24-4-54.3-9.13L401.56,202Z"/><path class="cls-1" d="M180.27,347.19c-34.16-9.68-59-15.42-93.53-23.58,4.57,6.08,12.18,8.93,19.45,11.17,13.52,4.18,27.34,7.33,41.14,10.47,15.19,3.46,18,4.33,33.17,7.79-36.92-7.86-62.85-6.28-100.13-.38,8.11,1.93,16.54,2,24.87,2.09,26.52.25,47.94,1.37,74.45,1.61-6.65-.34-9.05-1.26-16.37-1-30.44,1.18-59.8,11.69-89.69,17.54,44.64-5.13,63.26-7.19,107.9-12.32"/><path class="cls-5" d="M195.27,341.19c-34.16-9.68-59-15.42-93.53-23.58,4.57,6.08,12.18,8.93,19.45,11.17,13.52,4.18,27.34,7.33,41.14,10.47,15.19,3.46,18,4.33,33.17,7.79-36.92-7.86-62.85-6.28-100.13-.38,8.11,1.93,16.54,2,24.87,2.09,26.52.25,47.94,1.37,74.45,1.61-6.65-.34-9.05-1.26-16.37-1-30.44,1.18-59.79,11.69-89.69,17.54,44.64-5.13,63.26-7.19,107.9-12.33"/><path class="cls-5" d="M648,307.25c26.18-8.38,54.92-16.66,81.46-23.81,8.65-2.34,17.72-4.55,26.48-2.66-4.41,5.38-11.36,7.84-18,9.88-32.13,9.85-49.67,10.8-82.83,16.25,13.76-3.09,9.67-2.61,22.8-4.09a441.57,441.57,0,0,1,95.12-.38c-44.68,1.79-81.72,2.79-126.41,4.59,31.28.18,54.9,1.14,86.17,1.41,13.5.12,27.33.31,39.93,5.15-42.66.94-81.63.73-124.26-1.29"/><path class="cls-5" d="M569.83,238.46c-113.51,62.6-329.58,26.3-329.58,26.3l-13.42,12.81c-4.49,4.28-12.39,12.16-15.63,17.46l-9.47,19s284.92,53.18,424.66-39.74l-21.71-16.51a138.76,138.76,0,0,0-16.59-9.81Z"/></g></svg>